<svg width="375" height="196" viewBox="0 0 375 196" fill="none" xmlns="http://www.w3.org/2000/svg">
<path d="M333.523 38.1604L0.165894 58.3843L8.87186 195.706L342.229 175.482L333.523 38.1604Z" fill="#0B5EAA"/>
<path d="M367.443 0.578126L258.957 7.15967L265.688 113.326L374.174 106.745L367.443 0.578126Z" fill="#0B5EAA"/>
<path fill-rule="evenodd" clip-rule="evenodd" d="M325.897 51.1717C328.308 51.027 330.135 49.001 329.98 46.6495C329.832 44.2979 327.761 42.5035 325.357 42.6555C322.953 42.8002 321.126 44.8261 321.274 47.1777C321.422 49.522 323.493 51.3164 325.897 51.1717Z" fill="white"/>
<path fill-rule="evenodd" clip-rule="evenodd" d="M307.768 71.2648C310.172 71.1201 311.999 69.0942 311.851 66.7427C311.703 64.3912 309.632 62.5968 307.228 62.7487C304.824 62.8934 302.99 64.9193 303.145 67.2709C303.286 69.6224 305.364 71.4095 307.768 71.2648Z" fill="white"/>
<path fill-rule="evenodd" clip-rule="evenodd" d="M330.557 60.3825C332.961 60.2378 334.788 58.2119 334.64 55.8604C334.492 53.5089 332.421 51.7145 330.017 51.8664C327.613 52.0111 325.779 54.037 325.934 56.3886C326.082 58.7401 328.153 60.5273 330.557 60.3825Z" fill="white"/>
<path fill-rule="evenodd" clip-rule="evenodd" d="M303.108 62.0467C305.512 61.902 307.339 59.876 307.191 57.5245C307.043 55.1729 304.972 53.3785 302.568 53.5305C300.164 53.6752 298.338 55.7011 298.485 58.0527C298.633 60.4042 300.697 62.1914 303.108 62.0467Z" fill="white"/>
<path fill-rule="evenodd" clip-rule="evenodd" d="M327.103 70.0926C329.514 69.9479 331.341 67.9219 331.186 65.5704C331.038 63.2188 328.967 61.4244 326.563 61.5764C324.159 61.7211 322.332 63.747 322.48 66.0986C322.628 68.4501 324.699 70.2373 327.103 70.0926Z" fill="white"/>
<path fill-rule="evenodd" clip-rule="evenodd" d="M306.562 52.344C308.966 52.1993 310.793 50.1734 310.645 47.8218C310.497 45.4703 308.426 43.6759 306.023 43.8278C303.619 43.9725 301.784 45.9985 301.94 48.35C302.088 50.6943 304.159 52.4887 306.562 52.344Z" fill="white"/>
<path fill-rule="evenodd" clip-rule="evenodd" d="M317.687 74.6512C320.091 74.5064 321.918 72.4805 321.77 70.129C321.622 67.7774 319.551 65.983 317.147 66.135C314.743 66.2797 312.909 68.3056 313.064 70.6572C313.205 73.0087 315.283 74.7959 317.687 74.6512Z" fill="white"/>
<path fill-rule="evenodd" clip-rule="evenodd" d="M315.978 47.7786C318.382 47.6338 320.209 45.6079 320.061 43.2564C319.913 40.9049 317.842 39.1105 315.438 39.2624C313.034 39.4071 311.2 41.433 311.355 43.7846C311.503 46.1361 313.574 47.9305 315.978 47.7786Z" fill="white"/>
<path fill-rule="evenodd" clip-rule="evenodd" d="M53.7182 115.72L64.214 115.09L65.2421 109.461L54.7464 110.09L53.7182 115.72ZM70.7821 103.521C71.1889 103.513 71.5366 103.593 71.7659 103.861C71.9952 104.136 72.0617 104.439 72.0247 104.83L69.4212 118.968C69.3324 119.359 69.1475 119.692 68.8072 120.003C68.467 120.321 68.1046 120.437 67.6904 120.495L46.7433 121.812L51.9801 93.579L74.4582 92.2188L73.4375 97.848L56.9505 98.8392L55.9224 104.468L70.7821 103.521Z" fill="white"/>
<path fill-rule="evenodd" clip-rule="evenodd" d="M90.0946 96.893L86.9584 113.824L98.9409 113.093L102.077 96.1622L90.0946 96.893ZM85.1833 91.5894L109.148 90.1206L103.904 118.353L79.9391 119.822L85.1833 91.5894Z" fill="white"/>
<path fill-rule="evenodd" clip-rule="evenodd" d="M131.708 97.5804L119.733 117.391L113.127 117.796L130.665 88.8182L136.035 88.4854L143.084 115.966L136.478 116.371L131.708 97.5804Z" fill="white"/>
<path fill-rule="evenodd" clip-rule="evenodd" d="M169.933 108.737L170.954 103.108L160.458 103.738L159.43 109.367L169.933 108.737ZM161.538 98.1157L178.025 97.1172L174.889 114.048L152.411 115.409L157.647 87.1757L163.639 86.8066L161.538 98.1157Z" fill="white"/>
<path fill-rule="evenodd" clip-rule="evenodd" d="M216.635 105.966L220.858 83.3628L226.85 83.001L221.606 111.227L185.658 113.433L190.895 85.2006L196.886 84.8316L192.67 107.435L201.642 106.856L205.851 84.2527L211.842 83.8837L207.626 106.487L216.635 105.966Z" fill="white"/>
<path fill-rule="evenodd" clip-rule="evenodd" d="M253.063 86.9587L242.567 87.5882L241.539 93.2174L252.035 92.5952L253.063 86.9587ZM250.955 98.2605L240.459 98.89L238.351 110.192L232.36 110.561L237.604 82.328L260.083 80.9678L254.838 109.201L248.847 109.562L250.955 98.2605Z" fill="white"/>
<path fill-rule="evenodd" clip-rule="evenodd" d="M278.825 85.4248L277.745 91.1046L286.71 90.5258L287.731 84.8966L278.825 85.4248ZM294.809 78.855L289.573 107.088L283.581 107.457L285.689 96.155L284.306 96.2201L274.617 107.985L267.242 108.412L276.932 96.647L270.733 97.045L272.842 85.7431L269.868 85.953L270.896 80.3238L294.809 78.855Z" fill="white"/>
<path fill-rule="evenodd" clip-rule="evenodd" d="M57.7494 157.179L61.9655 134.575L53.0008 135.154L48.7848 157.758L42.7936 158.127L47.0096 135.516L44.0362 135.733L45.0569 130.104L69.0292 128.635L63.785 156.868L57.7494 157.179Z" fill="white"/>
<path fill-rule="evenodd" clip-rule="evenodd" d="M96.5961 126.993L95.568 132.622L83.5856 133.36L83.0456 136.196L95.0281 135.458L93.9999 141.087L82.0175 141.818L80.4494 150.284L92.4319 149.553L91.4111 155.182L73.4375 156.282L78.6743 128.049L96.5961 126.993Z" fill="white"/>
<path fill-rule="evenodd" clip-rule="evenodd" d="M114.148 131.442L113.12 137.072L122.085 136.493L123.105 130.864L114.148 131.442ZM112.04 142.744L109.932 154.046L103.941 154.415L108.157 131.811L105.184 132.021L106.212 126.392L130.177 124.923L127.04 141.854L112.04 142.744Z" fill="white"/>
<path fill-rule="evenodd" clip-rule="evenodd" d="M157.744 123.281L156.715 128.91L144.733 129.648L144.193 132.484L156.175 131.746L155.147 137.376L143.165 138.114L141.597 146.579L153.579 145.841L152.559 151.47L134.578 152.57L139.822 124.337L157.744 123.281Z" fill="white"/>
<path fill-rule="evenodd" clip-rule="evenodd" d="M171.006 134.995L168.114 150.551L162.122 150.92L167.359 122.687L174.844 122.217L178.713 141.369L189.845 121.32L197.323 120.85L192.078 149.082L186.087 149.451L188.987 133.888L180.096 149.82L174.105 150.182L171.006 134.995Z" fill="white"/>
<path fill-rule="evenodd" clip-rule="evenodd" d="M224.882 119.207L223.854 124.836L211.872 125.574L211.332 128.411L223.314 127.673L222.286 133.302L210.311 134.033L208.736 142.498L220.718 141.767L219.697 147.396L201.724 148.496L206.96 120.263L224.882 119.207Z" fill="white"/>
<path fill-rule="evenodd" clip-rule="evenodd" d="M250.948 117.608L256.939 117.239L251.702 145.472L245.711 145.841L247.812 134.532L237.316 135.169L235.208 146.463L229.224 146.832L234.461 118.6L240.452 118.231L238.344 129.532L248.847 128.91L250.948 117.608Z" fill="white"/>
<path fill-rule="evenodd" clip-rule="evenodd" d="M281.976 121.327L271.481 121.957L270.453 127.586L280.948 126.957L281.976 121.327ZM279.928 132.586L269.432 133.215L267.324 144.517L261.333 144.886L266.569 116.653L289.047 115.293L283.811 143.526L277.819 143.895L279.928 132.586Z" fill="white"/>
</svg>
