<svg width="477" height="612" viewBox="0 0 477 612" fill="none" xmlns="http://www.w3.org/2000/svg">
<g filter="url(#filter0_d_3637_87)">
<path d="M280.184 154.611L251.983 58.6587L324.511 39.4114L337.761 84.496L311.616 91.4345L326.566 142.302L280.184 154.611Z" fill="white"/>
<path d="M317.29 51.9159L324.763 77.3392L298.605 84.2801L313.551 135.127L287.393 142.067L272.447 91.2211L264.974 65.7978L291.132 58.8569L317.29 51.9159ZM331.753 26.8663L311.506 32.2385L285.348 39.1795L259.19 46.1204L238.944 51.4927L244.728 71.1701L252.201 96.5933L267.146 147.44L272.93 167.117L293.176 161.745L319.335 154.804L339.581 149.432L333.797 129.754L324.635 98.5853L330.547 97.0166L350.793 91.6443L345.009 71.9669L337.537 46.5437L331.753 26.8663Z" fill="white"/>
<path d="M242.389 519.673L199.384 373.116L225.462 366.184L223.791 360.49L93.3605 395.158L80.1432 350.115L106.221 343.184L98.7771 317.815L124.855 310.883L117.423 285.554L143.541 278.612L136.085 253.204L162.163 246.272L154.719 220.903L180.797 213.972L173.353 188.603L219.615 176.307L299.829 449.668L273.751 456.6L288.651 507.376L242.389 519.673Z" fill="white"/>
<path d="M212.419 188.768L286.905 442.552L260.815 449.485L268.274 474.899L275.721 500.273L249.632 507.206L242.184 481.832L212.372 380.255L238.461 373.322L231.014 347.948L204.924 354.881L100.525 382.624L93.0778 357.249L119.167 350.316L111.72 324.942L137.81 318.009L130.362 292.634L156.492 285.69L149.045 260.316L175.135 253.383L167.687 228.008L193.777 221.075L186.329 195.701L212.419 188.768ZM226.848 163.762L206.655 169.128L180.565 176.061L160.372 181.427L166.136 201.067L167.819 206.802L161.923 208.369L141.73 213.735L147.494 233.375L149.177 239.109L143.281 240.676L123.087 246.042L128.852 265.682L130.535 271.417L124.598 272.995L104.405 278.361L110.169 298L111.852 303.735L105.956 305.302L85.7626 310.668L91.5268 330.308L93.21 336.043L87.3136 337.61L67.1203 342.976L72.8846 362.616L80.332 387.99L86.0962 407.63L106.289 402.264L190.495 379.887L192.178 385.621L221.98 487.159L229.427 512.533L235.191 532.173L255.384 526.807L281.474 519.874L301.667 514.507L295.903 494.868L288.456 469.493L286.761 463.719L292.657 462.152L312.851 456.786L307.086 437.146L232.612 183.402L226.848 163.762Z" fill="white"/>
<path d="M294.184 428.72L247.695 441.052L260.978 486.227L307.467 473.896L294.184 428.72Z" fill="white"/>
<path d="M286.94 441.265L294.439 466.77L268.233 473.721L260.734 448.216L286.94 441.265ZM301.427 416.175L281.144 421.555L254.938 428.507L234.655 433.887L240.451 453.597L247.95 479.101L253.746 498.811L274.029 493.431L300.234 486.48L320.518 481.1L314.722 461.39L307.223 435.885L301.427 416.175Z" fill="white"/>
<path d="M313.418 396.292L266.888 408.634L280.172 453.81L326.702 441.468L313.418 396.292Z" fill="white"/>
<path d="M306.174 408.838L313.662 434.303L287.415 441.265L279.927 415.8L306.174 408.838ZM320.662 383.747L300.379 389.128L274.132 396.09L253.849 401.47L259.644 421.18L267.132 446.645L272.928 466.355L293.211 460.975L319.457 454.013L339.741 448.633L333.945 428.923L326.457 403.457L320.662 383.747Z" fill="white"/>
<path d="M351.764 331.47L305.274 343.802L318.558 388.977L365.047 376.646L351.764 331.47Z" fill="white"/>
<path d="M344.56 344.004L352.06 369.509L325.854 376.46L318.355 350.955L344.56 344.004ZM359.048 318.914L338.765 324.294L312.559 331.245L292.276 336.625L298.071 356.335L305.571 381.84L311.366 401.55L331.649 396.17L357.855 389.219L378.138 383.839L372.343 364.129L364.843 338.624L359.048 318.914Z" fill="white"/>
<path d="M370.998 299.043L324.509 311.375L337.792 356.55L384.281 344.218L370.998 299.043Z" fill="white"/>
<path d="M363.754 311.588L371.242 337.053L345.036 344.005L337.548 318.539L363.754 311.588ZM378.242 286.498L357.958 291.878L331.752 298.829L311.469 304.209L317.265 323.92L324.753 349.385L330.548 369.095L350.831 363.715L377.037 356.763L397.32 351.383L391.525 331.673L384.037 306.208L378.242 286.498Z" fill="white"/>
<path d="M293.591 129.532L247.261 141.833L267.954 212.277L314.284 199.976L293.591 129.532Z" fill="white"/>
<path d="M286.417 142.014L301.351 192.834L275.21 199.773L260.276 148.952L286.417 142.014ZM300.871 116.976L280.638 122.346L254.496 129.285L234.263 134.655L240.042 154.322L254.976 205.143L260.756 224.81L280.989 219.44L307.131 212.502L327.364 207.131L321.585 187.464L306.651 136.643L300.871 116.976Z" fill="white"/>
<path d="M236.583 526.008L163.643 545.375L176.959 590.706L249.899 571.34L236.583 526.008Z" fill="white"/>
<path d="M229.303 538.617L236.805 564.145L210.542 571.116L184.279 578.086L176.778 552.558L203.041 545.588L229.303 538.617ZM243.824 513.464L223.497 518.859L197.234 525.829L170.971 532.8L150.644 538.195L156.45 557.953L163.952 583.481L169.758 603.24L190.086 597.845L216.348 590.874L242.611 583.904L262.939 578.508L257.132 558.75L249.631 533.222L243.824 513.464Z" fill="white"/>
<path d="M196.691 558.239L176.03 487.871L202.126 480.939L187.21 430.138L233.504 417.841L269.081 539.009L232.886 548.624L196.691 558.239Z" fill="white"/>
<path d="M226.299 430.318L248.685 506.537L256.132 531.891L230.014 538.826L203.896 545.762L188.979 494.975L215.097 488.04L200.181 437.254L226.299 430.318ZM240.741 405.296L220.526 410.664L194.408 417.599L174.193 422.967L179.965 442.622L189.11 473.754L183.207 475.321L162.992 480.689L168.764 500.344L183.681 551.13L189.454 570.784L209.669 565.416L235.787 558.481L261.905 551.545L282.12 546.177L276.347 526.523L268.901 501.169L246.525 424.989L240.741 405.296Z" fill="white"/>
<path d="M274.805 428.573L194.723 155.373L220.808 148.432L213.377 123.082L239.381 116.163L231.95 90.813L278.153 78.5194L298.766 148.84L272.721 155.77L302.467 257.249L276.463 264.168L285.562 295.208L389.739 267.489L402.932 312.499L350.804 326.369L358.234 351.719L332.19 358.649L347.051 409.349L274.805 428.573Z" fill="white"/>
<path d="M270.93 90.9699L285.8 141.684L259.74 148.616L274.611 199.329L248.59 206.25L274.611 199.329L289.493 250.082L263.473 257.004L278.343 307.717L356.525 286.922L382.585 279.99L390.032 305.386L363.972 312.318L337.911 319.25L345.346 344.607L319.286 351.539L326.721 376.896L300.701 383.817L326.721 376.896L334.157 402.253L308.136 409.174L282.036 416.116L252.283 314.649L237.412 263.935L207.659 162.468L233.76 155.526L226.325 130.169L252.345 123.248L244.91 97.891L270.93 90.9699ZM285.346 65.9787L265.175 71.3438L239.114 78.2756L218.944 83.6408L224.699 103.267L226.379 108.998L220.53 110.554L200.359 115.919L206.114 135.545L207.794 141.276L201.864 142.853L181.693 148.218L187.448 167.844L211.446 249.685L217.201 269.311L232.072 320.025L237.827 339.651L261.825 421.492L267.579 441.118L287.75 435.753L313.851 428.81L339.871 421.889L360.042 416.524L354.287 396.898L352.606 391.167L346.852 371.541L345.171 365.81L351.061 364.244L371.232 358.879L365.477 339.252L363.796 333.522L369.686 331.955L395.747 325.023L415.917 319.658L410.162 300.032L402.716 274.636L396.961 255.01L376.79 260.375L350.729 267.307L292.719 282.737L289.358 271.275L295.207 269.719L315.378 264.354L309.623 244.728L300.496 213.601L294.741 193.975L285.625 162.887L291.515 161.321L311.686 155.955L305.931 136.329L291.06 85.6155L285.305 65.9894L285.346 65.9787Z" fill="white"/>
</g>
<path d="M317.706 51.957L291.466 58.9404L298.919 84.3734L325.16 77.39L317.706 51.957Z" fill="#ED730E"/>
<path d="M195.012 221.074L169.129 228.016L205.901 354.458L231.784 347.516L239.125 372.758L213.242 379.699L242.673 480.9L268.556 473.958L261.193 448.639L287.076 441.697L213.543 188.852L187.66 195.794L195.012 221.074Z" fill="#FFE95D"/>
<path d="M440.995 481.11L414.754 488.093L422.208 513.526L448.448 506.543L440.995 481.11Z" fill="#ED730E"/>
<path d="M229.365 538.565L203.125 545.548L210.579 570.981L236.819 563.998L229.365 538.565Z" fill="#ED730E"/>
<path d="M354.362 477.382L328.163 484.354L335.616 509.787L361.815 502.815L354.362 477.382Z" fill="#ED730E"/>
<path d="M248.588 506.099L222.348 513.082L229.802 538.515L256.042 531.532L248.588 506.099Z" fill="#ED730E"/>
<path d="M373.566 445.004L347.326 451.988L354.78 477.421L381.02 470.438L373.566 445.004Z" fill="#ED730E"/>
<path d="M267.792 473.721L241.552 480.705L249.006 506.138L275.246 499.154L267.792 473.721Z" fill="#ED730E"/>
<path d="M392.789 412.538L366.549 419.521L374.014 444.993L400.254 438.01L392.789 412.538Z" fill="#ED730E"/>
<path d="M286.974 441.265L260.734 448.249L268.199 473.721L294.439 466.738L286.974 441.265Z" fill="#ED730E"/>
<path d="M306.208 408.838L279.927 415.832L287.381 441.265L313.662 434.271L306.208 408.838Z" fill="#ED730E"/>
<path d="M325.361 376.432L299.162 383.405L306.615 408.838L332.814 401.865L325.361 376.432Z" fill="#ED730E"/>
<path d="M344.553 344.016L318.313 350.999L325.778 376.471L352.018 369.488L344.553 344.016Z" fill="#ED730E"/>
<path d="M363.788 311.588L337.548 318.571L345.001 344.004L371.242 337.021L363.788 311.588Z" fill="#ED730E"/>
<path d="M382.969 279.132L356.729 286.116L364.194 311.588L390.434 304.605L382.969 279.132Z" fill="#ED730E"/>
<path d="M262.566 257.374L236.415 264.345L251.248 315.039L277.4 308.069L262.566 257.374Z" fill="#ED730E"/>
<path d="M274.468 199.732L248.398 206.681L263.243 257.413L289.313 250.464L274.468 199.732Z" fill="#ED730E"/>
<path d="M286.411 142.078L260.3 149.038L275.134 199.732L301.244 192.772L286.411 142.078Z" fill="#ED730E"/>
<path d="M108.645 217.58L82.4053 224.563L89.8588 249.997L116.099 243.013L108.645 217.58Z" fill="#ED730E"/>
<path d="M127.839 185.164L101.599 192.147L109.052 217.58L135.292 210.597L127.839 185.164Z" fill="#ED730E"/>
<path d="M298.383 84.3732L272.273 91.333L287.106 142.027L313.217 135.067L298.383 84.3732Z" fill="#ED730E"/>
<path d="M147.062 152.697L120.822 159.681L128.275 185.114L154.516 178.13L147.062 152.697Z" fill="#ED730E"/>
<path d="M166.255 120.28L140.015 127.264L147.468 152.697L173.708 145.713L166.255 120.28Z" fill="#ED730E"/>
<path d="M60.4399 149.008L34.1997 155.991L41.6532 181.424L67.8934 174.441L60.4399 149.008Z" fill="#ED730E"/>
<path d="M202.922 545.744L176.682 552.728L184.135 578.161L210.375 571.177L202.922 545.744Z" fill="#F8A927"/>
<path d="M215.109 488.08L188.999 495.04L203.821 545.694L229.931 538.735L222.526 513.427L248.637 506.467L226.375 430.386L200.264 437.346L215.109 488.08Z" fill="#F8A927"/>
<path d="M299.568 383.601L325.768 376.628L318.314 351.195L344.554 344.212L337.101 318.778L363.381 311.784L355.916 286.312L250.915 314.256L280.741 416.028L307.022 409.034L299.568 383.601Z" fill="#F8A927"/>
<path d="M205.289 355.458L175.464 253.686L149.224 260.669L156.689 286.142L130.408 293.136L137.85 318.53L111.61 325.513L119.063 350.946L92.8231 357.93L100.288 383.402L205.289 355.458Z" fill="#F8A927"/>
<path d="M248.731 206.9L274.801 199.951L259.956 149.217L286.066 142.258L271.233 91.5634L245.122 98.5233L252.539 123.87L226.469 130.819L233.886 156.166L207.735 163.137L237.413 264.564L263.564 257.594L248.731 206.9Z" fill="#F8A927"/>
<path d="M291.263 59.1362L265.022 66.1196L272.476 91.5527L298.716 84.5693L291.263 59.1362Z" fill="#F8A927"/>
<defs>
<filter id="filter0_d_3637_87" x="66.1201" y="0.866211" width="380.797" height="608.374" filterUnits="userSpaceOnUse" color-interpolation-filters="sRGB">
<feFlood flood-opacity="0" result="BackgroundImageFix"/>
<feColorMatrix in="SourceAlpha" type="matrix" values="0 0 0 0 0 0 0 0 0 0 0 0 0 0 0 0 0 0 127 0" result="hardAlpha"/>
<feOffset dx="15" dy="-10"/>
<feGaussianBlur stdDeviation="8"/>
<feComposite in2="hardAlpha" operator="out"/>
<feColorMatrix type="matrix" values="0 0 0 0 0 0 0 0 0 0 0 0 0 0 0 0 0 0 0.15 0"/>
<feBlend mode="normal" in2="BackgroundImageFix" result="effect1_dropShadow_3637_87"/>
<feBlend mode="normal" in="SourceGraphic" in2="effect1_dropShadow_3637_87" result="shape"/>
</filter>
</defs>
</svg>
