<svg width="179" height="163" viewBox="0 0 179 163" fill="none" xmlns="http://www.w3.org/2000/svg">
<path fill-rule="evenodd" clip-rule="evenodd" d="M164.221 16.4817C155.044 6.26398 142.446 0.625 128.75 0.625C118.513 0.625 109.133 3.94867 100.877 10.5094C96.7128 13.8071 92.9417 17.8579 89.6117 22.5924C86.2903 17.8579 82.5192 13.8115 78.3459 10.5094C70.0902 3.94867 60.7186 0.625 50.4865 0.625C36.7903 0.625 24.1796 6.26398 15.0027 16.4817C5.92955 26.5911 0.93457 40.4095 0.93457 55.3616C0.93457 70.7682 6.53068 84.8765 18.523 99.7508C29.2697 113.054 44.6871 126.548 62.5609 142.192C68.6587 147.52 75.5825 153.587 82.7571 160.031C84.6686 161.728 87.0991 162.667 89.6117 162.667C92.1373 162.667 94.5677 161.728 96.4663 160.031C103.654 153.587 110.569 147.524 116.675 142.179C134.536 126.548 149.967 113.054 160.7 99.7508C172.701 84.8808 178.302 70.7682 178.302 55.3616C178.302 40.4095 173.294 26.5911 164.221 16.4817Z" fill="#E9EFF1"/>
</svg>
