<svg width="102" height="139" viewBox="0 0 102 139" fill="none" xmlns="http://www.w3.org/2000/svg">
<path fill-rule="evenodd" clip-rule="evenodd" d="M91.3509 55.5934C89.6088 53.6823 87.2215 52.6299 84.6213 52.6299C82.6794 52.6299 80.9012 53.2497 79.3358 54.4764C78.5466 55.093 77.8295 55.8484 77.1974 56.7329C76.5687 55.8484 75.8515 55.093 75.059 54.4764C73.4937 53.2497 71.7155 52.6299 69.7736 52.6299C67.1767 52.6299 64.7861 53.6823 63.0439 55.5934C61.3214 57.4818 60.375 60.0644 60.375 62.86C60.375 65.7395 61.436 68.377 63.712 71.1532C65.7489 73.6389 68.6765 76.1601 72.0659 79.0849C73.2219 80.0791 74.5351 81.2155 75.8974 82.4196C76.2608 82.7359 76.7193 82.9135 77.1974 82.9135C77.6755 82.9135 78.1373 82.7392 78.4975 82.4196C79.8598 81.2155 81.173 80.0824 82.3322 79.0849C85.7216 76.1634 88.646 73.6421 90.6829 71.1564C92.9588 68.377 94.0231 65.7395 94.0231 62.8632C94.0199 60.0644 93.0702 57.4818 91.3509 55.5934Z" fill="#E07BA7"/>
<path d="M83.1789 35.1893L83.1778 35.1902C81.2779 36.6745 79.5433 38.4993 78.0085 40.6472L77.1928 41.7888L76.3798 40.6452C74.8542 38.4989 73.1206 36.6751 71.2136 35.1914L71.2108 35.1893C67.454 32.2452 63.2071 30.7676 58.5617 30.7676C52.3235 30.7676 46.5921 33.2916 42.4099 37.8793L42.4098 37.8795C38.2713 42.4167 35.9722 48.6506 35.9722 55.4442C35.9722 62.388 38.518 68.7908 44.121 75.6254L44.1211 75.6256C49.1433 81.7543 56.371 87.9911 64.8499 95.3077L64.9673 95.409L83.1789 35.1893ZM83.1789 35.1893C86.9358 32.2452 91.1827 30.7676 95.8281 30.7676C102.074 30.7676 107.798 33.2915 111.98 37.8793C116.111 42.4172 118.418 48.6519 118.426 55.4535C118.426 62.3879 115.872 68.7906 110.268 75.634C105.223 81.7911 97.9591 88.0578 89.4299 95.4096C86.5199 97.9136 83.22 100.761 79.7957 103.788L79.7943 103.789M83.1789 35.1893L79.7943 103.789M79.7943 103.789C79.0735 104.428 78.1508 104.777 77.1949 104.777C76.2468 104.777 75.3282 104.425 74.5912 103.785M79.7943 103.789L74.5912 103.785M74.5912 103.785C71.1686 100.76 67.8704 97.9059 64.9685 95.41L74.5912 103.785Z" stroke="white" stroke-width="2"/>
<path d="M87.5493 9.6788L87.5482 9.67972C84.0342 12.4251 80.8327 15.7949 78.0053 19.7518L77.1895 20.8935L76.3766 19.7498C73.5649 15.7945 70.3645 12.4257 66.8367 9.68096L66.8339 9.67881C59.8756 4.22574 51.9918 1.48047 43.3746 1.48047C31.8251 1.48047 21.2044 6.15693 13.4589 14.6533L13.4588 14.6535C5.79728 23.0532 1.5625 34.5691 1.5625 47.0805C1.5625 59.9137 6.27845 71.7108 16.5364 84.2235L16.5365 84.2237C25.696 95.4013 38.8577 106.759 54.2077 120.004L54.4686 120.229L87.5493 9.6788ZM87.5493 9.6788C94.5077 4.22574 102.392 1.48047 111.009 1.48047C122.573 1.48047 133.178 6.15661 140.924 14.6528C148.571 23.0532 152.821 34.5701 152.836 47.0963C152.835 59.9136 148.105 71.7105 137.847 84.2387C128.635 95.4798 115.39 106.903 99.9288 120.23C94.6478 124.774 88.662 129.939 82.4515 135.429L82.4501 135.43M87.5493 9.6788L82.4501 135.43M82.4501 135.43C80.9925 136.723 79.1254 137.428 77.1916 137.428C75.2659 137.428 73.4099 136.714 71.9294 135.426M82.4501 135.43L71.9294 135.426M71.9294 135.426C65.7204 129.938 59.7362 124.76 54.4699 120.23L71.9294 135.426Z" stroke="white" stroke-width="2"/>
</svg>
