<svg width="91" height="89" viewBox="0 0 91 89" fill="none" xmlns="http://www.w3.org/2000/svg">
<path opacity="0.2" fill-rule="evenodd" clip-rule="evenodd" d="M69.7029 31.6433C75.683 31.6433 80.5408 26.902 80.5408 21.0653C80.5408 15.2286 75.683 10.4873 69.7029 10.4873C63.7228 10.4873 58.865 15.2115 58.865 21.0653C58.865 26.9192 63.7228 31.6433 69.7029 31.6433Z" fill="white"/>
<path opacity="0.702" fill-rule="evenodd" clip-rule="evenodd" d="M21.5812 78.593C27.5614 78.593 32.4191 73.8519 32.4191 68.0153C32.4191 62.1787 27.5614 57.4375 21.5812 57.4375C15.6011 57.4375 10.7433 62.1615 10.7433 68.0153C10.7433 73.869 15.6011 78.593 21.5812 78.593Z" fill="white"/>
<path opacity="0.4" fill-rule="evenodd" clip-rule="evenodd" d="M79.8042 55.1267C85.7844 55.1267 90.6422 50.4027 90.6422 44.549C90.6422 38.7124 85.7844 33.9712 79.8042 33.9712C73.8241 33.9712 68.9663 38.6952 68.9663 44.549C68.9663 50.3855 73.8241 55.1267 79.8042 55.1267Z" fill="white"/>
<path opacity="0.8" fill-rule="evenodd" clip-rule="evenodd" d="M11.4799 55.1267C17.46 55.1267 22.3177 50.4027 22.3177 44.549C22.3177 38.7124 17.46 33.9712 11.4799 33.9712C5.49973 33.9712 0.641968 38.7124 0.641968 44.549C0.641968 50.3855 5.49973 55.1267 11.4799 55.1267Z" fill="white"/>
<path opacity="0.502" fill-rule="evenodd" clip-rule="evenodd" d="M69.7029 78.593C75.683 78.593 80.5408 73.8519 80.5408 68.0153C80.5408 62.1787 75.683 57.4375 69.7029 57.4375C63.7228 57.4375 58.865 62.1615 58.865 68.0153C58.865 73.869 63.7228 78.593 69.7029 78.593Z" fill="white"/>
<path opacity="0.8" fill-rule="evenodd" clip-rule="evenodd" d="M21.5812 31.6433C27.5614 31.6433 32.4191 26.902 32.4191 21.0653C32.4191 15.2286 27.5614 10.4873 21.5812 10.4873C15.6011 10.4873 10.7433 15.2115 10.7433 21.0653C10.7433 26.9192 15.6011 31.6433 21.5812 31.6433Z" fill="white"/>
<path opacity="0.6" fill-rule="evenodd" clip-rule="evenodd" d="M45.6421 88.4524C51.6222 88.4524 56.48 83.7111 56.48 77.8744C56.48 72.0377 51.6222 67.2964 45.6421 67.2964C39.662 67.2964 34.8042 72.0205 34.8042 77.8744C34.8042 83.7282 39.662 88.4524 45.6421 88.4524Z" fill="white"/>
<path fill-rule="evenodd" clip-rule="evenodd" d="M45.6421 21.7842C51.6222 21.7842 56.48 17.0601 56.48 11.2063C56.48 5.36962 51.6222 0.645508 45.6421 0.645508C39.662 0.645508 34.8042 5.36962 34.8042 11.2063C34.8042 17.0601 39.662 21.7842 45.6421 21.7842Z" fill="white"/>
</svg>
