<svg width="324" height="272" viewBox="0 0 324 272" fill="none" xmlns="http://www.w3.org/2000/svg">
<rect x="11.0396" y="172.94" width="50.6598" height="50.6598" fill="#822FBC"/>
<rect x="0.609863" y="164" width="50.6598" height="50.6598" fill="#61A1FF"/>
<rect x="133.665" y="33.998" width="26.0002" height="26.0002" fill="#822FBC"/>
<rect x="128.312" y="29.4102" width="26.0002" height="26.0002" fill="#FFEC61"/>
<rect x="324" y="271.074" width="32.1054" height="31.7526" transform="rotate(-180 324 271.074)" fill="#822FBC"/>
<rect x="318.417" y="264.374" width="32.1054" height="31.7526" transform="rotate(-180 318.417 264.374)" fill="#6CE7EA"/>
<path d="M290.382 23.6289L291.781 18.3725L288.976 17.7718L289.676 15.1414L286.875 14.5417L287.574 11.9157L281.962 10.7142L282.662 8.08382L264.852 4.27027L264.152 6.90066L258.546 5.70018L257.847 8.32613L255.041 7.72538L254.341 10.3558L251.54 9.75603L250.141 15.0124L247.336 14.4116L242.892 31.1093L245.698 31.71L244.299 36.9663L247.1 37.5661L246.399 40.1965L249.205 40.7972L248.505 43.4276L254.112 44.6281L253.413 47.254L271.223 51.0676L271.922 48.4416L277.533 49.6431L278.233 47.0128L281.034 47.6125L281.734 44.9821L284.54 45.5828L285.939 40.3265L288.739 40.9262L293.183 24.2286L290.382 23.6289Z" fill="white"/>
<path d="M288.014 25.0006L290.815 25.6004L287.317 38.7434L284.516 38.1437L283.117 43.4L280.312 42.7993L279.611 45.4297L276.806 44.8289L276.106 47.4593L270.499 46.2588L269.8 48.8848L255.782 45.883L256.48 43.2571L250.874 42.0566L251.574 39.4262L248.768 38.8255L249.468 36.1951L246.667 35.5953L248.066 30.339L245.261 29.7383L248.759 16.5952L251.564 17.196L252.963 11.9396L255.764 12.5394L256.464 9.90897L259.27 10.5097L259.969 7.88377L265.575 9.08426L266.275 6.45387L280.294 9.45559L279.594 12.086L285.2 13.2865L284.501 15.9124L287.307 16.5132L286.607 19.1435L289.413 19.7443L288.014 25.0006Z" fill="#FFD206"/>
<path d="M274.135 33.1154L271.329 32.5146L270.629 35.145L273.435 35.7458L274.135 33.1154Z" fill="#B3292A"/>
<path d="M262.784 30.59L259.978 29.9893L259.278 32.6196L262.084 33.2204L262.784 30.59Z" fill="#B3292A"/>
<path d="M252.08 14.4717L250.67 19.8086L253.493 20.4176L252.082 25.759L263.388 28.1978L264.093 25.5271L266.916 26.136L268.326 20.7991L271.154 21.409L269.744 26.746L272.567 27.3549L271.862 30.0256L283.168 32.4645L284.579 27.123L287.407 27.733L288.817 22.396L252.08 14.4717Z" fill="#B3292A"/>
<path d="M270.635 35.0424L262.159 33.2158L261.454 35.8833L269.93 37.7099L270.635 35.0424Z" fill="#B3292A"/>
<path d="M49.66 139.193L46.1637 139.994L45.6762 138.335L43.9291 138.736L43.4383 137.073L41.6918 137.475L40.7128 134.152L38.9658 134.552L36.1935 125.133L37.9399 124.73L36.9615 121.408L38.7102 121.005L38.2199 119.345L39.9664 118.942L39.4783 117.281L42.9739 116.477L42.4837 114.817L52.3919 112.541L52.8822 114.202L56.3757 113.398L56.8665 115.061L58.613 114.659L59.1017 116.322L60.8482 115.919L61.8272 119.243L63.5758 118.84L66.3487 128.261L64.6016 128.662L65.5784 131.986L63.8319 132.389L64.3222 134.049L62.5736 134.453L63.0633 136.111L59.5676 136.915L60.0579 138.575L50.1503 140.853L49.66 139.193Z" fill="#FFD206"/>
<path d="M51.9715 113.232L52.4596 114.893L55.9531 114.09L56.4412 115.751L58.1882 115.35L58.6769 117.013L60.424 116.613L61.4024 119.935L63.1494 119.534L65.5949 127.841L63.8479 128.242L64.8269 131.566L63.0798 131.966L63.5685 133.629L61.8215 134.03L62.3096 135.691L58.8161 136.494L59.3042 138.155L50.5657 140.163L50.0776 138.502L46.5819 139.305L46.0938 137.644L44.3468 138.045L43.8581 136.382L42.111 136.782L41.1321 133.458L39.385 133.859L36.9423 125.553L38.6893 125.153L37.7109 121.831L39.458 121.431L38.9693 119.767L40.7163 119.367L40.2282 117.706L43.7239 116.902L43.2358 115.241L51.9715 113.232ZM52.8139 111.849L51.6419 112.118L42.9057 114.125L41.7365 114.395L42.0638 115.509L42.2252 116.058L39.9003 116.589L38.7283 116.858L39.0557 117.972L39.217 118.521L38.6397 118.653L37.47 118.922L37.7967 120.034L37.9581 120.583L37.3808 120.715L36.2089 120.984L36.5362 122.098L37.1857 124.308L36.6084 124.44L35.4436 124.71L35.7709 125.824L38.2164 134.131L38.5437 135.245L39.7157 134.977L40.293 134.844L40.9418 137.052L41.2686 138.165L42.4406 137.896L43.0178 137.764L43.1792 138.312L43.5065 139.427L44.6785 139.158L45.2558 139.026L45.4165 139.573L45.7433 140.685L46.9152 140.416L49.2396 139.883L49.4009 140.432L49.7277 141.544L50.8996 141.276L59.6381 139.268L60.81 139L60.4832 137.887L60.3219 137.338L62.6407 136.802L63.8105 136.534L63.4837 135.422L63.3229 134.875L63.9002 134.743L65.07 134.475L64.7432 133.362L64.5819 132.813L65.1591 132.681L66.3289 132.413L66.0022 131.301L65.3505 129.091L65.9278 128.959L67.0976 128.691L66.7702 127.576L64.3247 119.269L63.998 118.157L62.826 118.426L62.2487 118.558L61.5993 116.348L61.2719 115.234L60.1 115.502L59.5227 115.635L59.3614 115.086L59.034 113.971L57.8621 114.24L57.2848 114.372L57.1234 113.824L56.7967 112.711L55.6247 112.98L53.302 113.51L53.1406 112.961L52.8139 111.849Z" fill="white"/>
<path d="M56.3818 128.063L47.4976 130.166L47.9792 131.851L56.8634 129.748L56.3818 128.063Z" fill="#B22A2A"/>
<path d="M57.7134 126L55.9541 126.411L56.4318 128.063L58.1911 127.652L57.7134 126Z" fill="#B22A2A"/>
<path d="M47.0205 128.588L45.2612 129L45.7389 130.652L47.4982 130.24L47.0205 128.588Z" fill="#B22A2A"/>
<path d="M58.5678 122.307L56.8228 122.717L57.7698 126.001L59.5149 125.592L58.5678 122.307Z" fill="#B22A2A"/>
<path d="M44.3144 125.76L42.5693 126.169L43.5164 129.453L45.2614 129.044L44.3144 125.76Z" fill="#B22A2A"/>
<path d="M54.0966 119.91L52.3516 120.319L53.2986 123.603L55.0437 123.194L54.0966 119.91Z" fill="#B22A2A"/>
<path d="M46.9663 121.636L45.2212 122.045L46.1683 125.329L47.9133 124.92L46.9663 121.636Z" fill="#B22A2A"/>
</svg>
