<svg width="296" height="270" viewBox="0 0 296 270" fill="none" xmlns="http://www.w3.org/2000/svg">
<path d="M157.313 181.937L166.523 187.107L155.698 205.208L146.488 200.037L157.313 181.937Z" fill="#3B4568"/>
<path d="M97.9953 136.495L116.491 146.878L121.926 137.792L223.602 194.866L234.456 176.72L243.704 181.911L238.27 190.997L247.518 196.188L242.099 205.249L232.85 200.057L227.416 209.143L218.168 203.952L212.733 213.038L194.263 202.67L167.106 248.074L130.114 227.309L135.548 218.223L144.796 223.414L166.519 187.096L120.305 161.155L114.87 170.241L105.622 165.05L100.188 174.136L90.9397 168.944L85.5052 178.03L76.2571 172.839L70.838 181.899L61.6162 176.723L83.3389 140.405L92.5607 145.581L97.9953 136.495Z" fill="#5D6B87"/>
<path d="M15.2057 150.071L24.438 155.252L19.0127 164.32L9.7804 159.139L15.2057 150.071Z" fill="#CEDDE1"/>
<path d="M29.8482 146.302L39.0806 151.483L33.6553 160.551L24.423 155.37L29.8482 146.302Z" fill="#CEDDE1"/>
<path d="M44.5055 142.508L53.7378 147.689L48.3125 156.757L39.0802 151.576L44.5055 142.508Z" fill="#CEDDE1"/>
<path d="M27.4305 108.782L45.9321 119.169L40.496 128.259L21.9944 117.872L27.4305 108.782Z" fill="#CEDDE1"/>
<path d="M51.3684 110.216L69.8701 120.603L64.434 129.692L45.9323 119.305L51.3684 110.216Z" fill="#CEDDE1"/>
<path d="M48.9581 72.737L85.9863 93.543L80.5426 102.653L43.5144 81.8473L48.9581 72.737Z" fill="#CEDDE1"/>
<path d="M249.119 173.432L258.33 178.603L247.505 196.703L238.295 191.532L249.119 173.432Z" fill="#5D6B87"/>
<path d="M83.617 56.1117L102.119 66.4985L96.6825 75.5883L78.1809 65.2014L83.617 56.1117Z" fill="#CEDDE1"/>
<path d="M70.4339 36.6353L88.9355 47.022L83.4994 56.1116L64.9978 45.7249L70.4339 36.6353Z" fill="#CEDDE1"/>
<path d="M109.003 34.2999L118.235 39.481L112.81 48.5491L103.578 43.368L109.003 34.2999Z" fill="#CEDDE1"/>
<path d="M105.1 20.0515L114.333 25.2324L108.907 34.3003L99.6749 29.1193L105.1 20.0515Z" fill="#CEDDE1"/>
<path d="M146.542 55.2102L155.784 60.3967L150.353 69.4742L159.594 74.6606L154.179 83.7123L163.42 88.8988L157.99 97.9763L250.35 149.811L244.919 158.889L254.161 164.075L248.73 173.153L239.489 167.966L223.213 195.173L121.612 138.152L116.181 147.229L97.6985 136.856L92.268 145.934L83.053 140.762L115.621 86.3228L124.836 91.4945L119.405 100.572L137.888 110.945L132.457 120.022L224.817 171.857L230.248 162.78L137.888 110.945L143.318 101.867L124.836 91.4945L130.266 82.417L121.051 77.2453L142.758 40.961L151.973 46.1327L146.542 55.2102Z" fill="#8B9BB5"/>
<path d="M101.197 5.80181L110.43 10.9829L105.004 20.0511L95.7721 14.87L101.197 5.80181Z" fill="#CEDDE1"/>
<path d="M137.811 110.733L230.489 162.869L225.04 171.999L132.362 119.863L137.811 110.733Z" fill="#EBEFF0"/>
<path d="M239.817 168.204L249.049 173.385L243.624 182.453L234.392 177.272L239.817 168.204Z" fill="#EBEFF0"/>
<path d="M124.615 91.2557L143.116 101.643L137.68 110.732L119.178 100.345L124.615 91.2557Z" fill="#EBEFF0"/>
<path d="M120.701 77.007L129.933 82.188L124.508 91.256L115.276 86.075L120.701 77.007Z" fill="#EBEFF0"/>
</svg>
