<svg width="87" height="179" viewBox="0 0 87 179" fill="none" xmlns="http://www.w3.org/2000/svg">
<rect x="57.7092" y="130.581" width="28.7907" height="28.7907" fill="#822FBC"/>
<rect x="51.7817" y="125.5" width="28.7907" height="28.7907" fill="#FFEC61"/>
<path d="M29.5936 94.7615L25.4258 96.6748L28.5022 103.376L32.67 101.463L29.5936 94.7615Z" fill="#EAEEEF"/>
<path d="M29.1519 95.9529L31.4785 101.02L28.9436 102.185L26.617 97.1173L29.1519 95.9529ZM30.0364 93.5703L28.4017 94.3205L25.8669 95.4849L24.2322 96.2351L24.9823 97.8697L27.309 102.937L28.0591 104.572L29.6938 103.822L32.2287 102.657L33.8633 101.907L33.1132 100.272L30.7866 95.205L30.0364 93.5703Z" fill="#EAEEEF"/>
<path d="M18.5735 101.798L13.5037 104.126L12.3393 101.589L9.80667 102.754L8.64224 100.219L6.10737 101.383L4.94518 98.8484L1.86841 92.1462L4.40328 90.9818L3.23885 88.4492L5.77372 87.2848L4.60929 84.7521L29.9535 73.1168L28.7891 70.5819L31.3239 69.4175L30.1618 66.8849L32.6944 65.7204L31.5322 63.1856L34.0648 62.0234L32.9026 59.4885L37.07 57.5762L41.7232 67.7089L55.2709 97.2227L51.1035 99.1373L49.9414 96.6047L47.4065 97.7668L46.2421 95.232L43.7094 96.3964L42.545 93.8593L40.0101 95.0237L38.8479 92.4911L27.8083 97.5586L31.7136 106.061L34.2462 104.897L36.1608 109.066L24.3911 114.47L18.5735 101.798Z" fill="#EAEEEF"/>
<path d="M36.6287 58.7677L41.282 68.9049L42.4464 71.4398L39.9115 72.6042L38.7494 70.0716L39.9138 72.6064L41.0782 75.1413L39.9138 72.6064L42.4487 71.442L49.4307 86.649L54.084 96.7862L51.5491 97.9506L50.3869 95.418L47.852 96.5824L46.6876 94.0476L44.1527 95.212L42.9883 92.6771L40.4534 93.8416L39.2913 91.3089L26.6192 97.1266L31.2724 107.264L33.8073 106.099L34.9717 108.634L24.8344 113.288L19.0168 100.615L13.947 102.942L12.7826 100.407L10.2477 101.572L9.08332 99.0367L6.54845 100.201L5.38402 97.6663L7.91889 96.5018L6.7567 93.9692L7.91889 96.5018L5.38402 97.6663L3.0574 92.5988L5.59227 91.4343L8.12714 90.2699L9.29157 92.8048L8.12714 90.2699L5.59227 91.4343L4.42785 88.8995L6.96271 87.735L5.79829 85.2002L31.1425 73.5648L29.9781 71.03L32.5129 69.8655L31.3508 67.3329L33.8856 66.1685L32.7212 63.6336L35.2561 62.4692L34.0916 59.9343L36.6287 58.7677ZM10.6643 89.0988L36.0062 77.4657L37.1707 80.0005L36.0062 77.4657L10.6643 89.0988ZM37.511 56.3828L35.8764 57.133L33.3415 58.2974L31.7068 59.0476L32.457 60.6822L32.8712 61.5824L31.971 61.9967L30.3364 62.7469L31.0865 64.3815L31.5008 65.284L30.6006 65.6982L28.9659 66.4484L29.7161 68.0831L30.1281 68.9833L29.2279 69.3975L27.5932 70.1477L28.3434 71.7824L28.7577 72.6848L5.05037 83.5588L3.41569 84.3089L4.16585 85.9436L4.58012 86.8438L3.67992 87.2581L2.04525 88.0082L2.79541 89.6429L3.20967 90.5431L2.30948 90.9574L0.674805 91.7075L1.42496 93.3422L3.75158 98.4097L4.50174 100.044L4.91601 100.945L5.66617 102.579L7.30085 101.829L8.20104 101.415L8.61531 102.315L9.36547 103.95L11.0001 103.2L11.9003 102.785L12.3146 103.688L13.0648 105.322L14.6994 104.572L18.1345 102.996L23.202 114.033L23.9522 115.668L25.5868 114.918L35.7241 110.264L37.3588 109.514L36.6086 107.88L35.4442 105.345L34.694 103.71L33.0593 104.46L32.1591 104.875L29.0062 98.0066L38.4112 93.6893L38.8232 94.5895L39.5734 96.2242L41.2081 95.474L42.1083 95.0597L42.5225 95.9622L43.2727 97.5968L44.9074 96.8467L45.8076 96.4324L46.2218 97.3348L46.972 98.9695L48.6067 98.2194L49.5069 97.8051L49.9189 98.7053L50.6691 100.34L52.3037 99.5898L54.8386 98.4254L56.4733 97.6752L55.7231 96.0405L51.0699 85.9033L44.838 72.3288L44.0878 70.6941L42.9234 68.1592L42.1777 66.5335L38.2701 58.022L37.511 56.3828Z" fill="#EAEEEF"/>
<path d="M29.1501 95.9531L26.6165 97.1162L28.9427 102.184L31.4763 101.02L29.1501 95.9531Z" fill="#3A4467"/>
<path d="M45.7292 85.2737L40.6594 87.6003L39.4972 85.0654L11.6182 97.8652L9.29154 92.7954L6.75667 93.9599L7.9211 96.4925L5.38623 97.6569L6.55066 100.192L9.08329 99.0274L10.2477 101.562L12.7826 100.398L13.9448 102.933L19.0145 100.606L24.8322 113.278L34.9694 108.625L33.805 106.09L31.2701 107.252L26.6169 97.1173L39.289 91.2996L40.4534 93.8322L42.9861 92.6678L44.1505 95.2027L46.6853 94.0405L47.8498 96.5754L50.3824 95.4109L51.5446 97.9458L54.0795 96.7814L49.4262 86.6464L46.8914 87.8086L45.7292 85.2737Z" fill="#5C6B86"/>
<path d="M66.7509 90.9638L64.2173 92.127L65.3813 94.6626L67.915 93.4995L66.7509 90.9638Z" fill="#EAEEEF"/>
<path d="M63.0522 89.5937L60.5186 90.7568L61.6817 93.2905L64.2153 92.1274L63.0522 89.5937Z" fill="#EAEEEF"/>
<path d="M59.3554 88.2236L56.8218 89.3867L57.9858 91.9224L60.5195 90.7593L59.3554 88.2236Z" fill="#EAEEEF"/>
<path d="M64.6301 79.666L59.5627 81.9922L60.7259 84.5258L65.7932 82.1996L64.6301 79.666Z" fill="#EAEEEF"/>
<path d="M58.3991 79.455L53.3318 81.7812L54.4958 84.3169L59.5631 81.9907L58.3991 79.455Z" fill="#EAEEEF"/>
<path d="M59.9775 69.5273L49.8408 74.1807L51.0039 76.7143L61.1406 72.0609L59.9775 69.5273Z" fill="#EAEEEF"/>
<path d="M5.59322 91.4238L3.05957 92.5869L5.38581 97.6542L7.91946 96.4911L5.59322 91.4238Z" fill="#5C6B86"/>
<path d="M51.4181 64.2509L46.3508 66.5771L47.5139 69.1108L52.5812 66.7846L51.4181 64.2509Z" fill="#EAEEEF"/>
<path d="M55.3227 59.3896L50.2554 61.7158L51.4194 64.2515L56.4867 61.9253L55.3227 59.3896Z" fill="#EAEEEF"/>
<path d="M45.396 57.8115L42.8623 58.9746L44.0264 61.5103L46.56 60.3472L45.396 57.8115Z" fill="#EAEEEF"/>
<path d="M46.7668 54.1142L44.2332 55.2773L45.3963 57.811L47.9299 56.6479L46.7668 54.1142Z" fill="#EAEEEF"/>
<path d="M35.2584 62.4646L32.7235 63.6291L33.888 66.1639L31.3531 67.3261L32.5153 69.8588L29.9827 71.0232L31.1448 73.5581L5.80062 85.1934L6.96505 87.726L4.43018 88.8904L5.5946 91.4253L8.12723 90.2609L11.6183 97.8655L39.4974 85.0657L40.6596 87.6006L45.7293 85.274L46.8915 87.8089L49.4264 86.6467L42.4465 71.4397L39.9116 72.6019L41.0738 75.1367L36.0063 77.4634L37.1707 79.9982L11.8265 91.6336L10.6643 89.0964L36.0063 77.4634L34.8441 74.9285L39.9116 72.6019L38.7472 70.067L41.2821 68.9048L36.6288 58.7676L34.094 59.9298L35.2584 62.4646Z" fill="#8999B3"/>
<path d="M48.1367 50.415L45.603 51.5781L46.7671 54.1138L49.3007 52.9507L48.1367 50.415Z" fill="#EAEEEF"/>
<path d="M36.004 77.4637L10.6614 89.0977L11.8254 91.6333L37.168 79.9994L36.004 77.4637Z" fill="#EAEEEF"/>
<path d="M8.12691 90.2607L5.59326 91.4238L6.75732 93.9595L9.29097 92.7964L8.12691 90.2607Z" fill="#EAEEEF"/>
<path d="M39.9084 72.6035L34.8411 74.9297L36.0051 77.4654L41.0724 75.1391L39.9084 72.6035Z" fill="#EAEEEF"/>
<path d="M41.2797 68.9033L38.7461 70.0664L39.9092 72.6001L42.4429 71.4369L41.2797 68.9033Z" fill="#EAEEEF"/>
<rect x="28.5295" y="178.586" width="19.4284" height="19.2148" transform="rotate(-180 28.5295 178.586)" fill="#822FBC"/>
<rect x="23.074" y="174.04" width="19.4284" height="19.2148" transform="rotate(-180 23.074 174.04)" fill="#61A1FF"/>
<path d="M36.8665 32.3769L33.4482 30.9638L34.0525 29.26L32.3444 28.554L32.9481 26.8451L31.2393 26.1411L32.448 22.7263L30.7399 22.0202L34.1667 12.3447L35.8755 13.0486L37.0835 9.63596L38.7944 10.3408L39.3973 8.63404L41.1061 9.33801L41.7111 7.63212L45.1301 9.04306L45.733 7.33627L55.4227 11.3371L54.8198 13.0439L58.2367 14.4539L57.633 16.1628L59.3418 16.8668L58.736 18.5748L60.4448 19.2787L59.2361 22.6935L60.9471 23.3984L57.5195 33.0761L55.8115 32.37L54.6007 35.7839L52.8918 35.0799L52.2889 36.7867L50.578 36.0818L49.9759 37.7865L46.5569 36.3756L45.954 38.0824L36.2636 34.0837L36.8665 32.3769Z" fill="#FFD206"/>
<path d="M54.649 11.6737L54.044 13.3796L57.4609 14.7896L56.8559 16.4955L58.5639 17.2016L57.9582 18.9096L59.6662 19.6157L58.4583 23.0284L60.1663 23.7344L57.1447 32.2678L55.4366 31.5618L54.2279 34.9766L52.5199 34.2705L51.9141 35.9785L50.206 35.2724L49.601 36.9783L46.1841 35.5683L45.5791 37.2742L37.0331 33.7462L37.6381 32.0403L34.2191 30.6293L34.8241 28.9234L33.1161 28.2173L33.7219 26.5093L32.0138 25.8033L33.2225 22.3884L31.5144 21.6824L34.5374 13.152L36.2455 13.8581L37.4534 10.4454L39.1615 11.1514L39.7672 9.44344L41.4753 10.1495L42.0803 8.44362L45.4993 9.85457L46.1043 8.14868L54.649 11.6737ZM56.1986 11.0022L55.0529 10.5285L46.5089 7.00137L45.3645 6.53066L44.9586 7.67495L44.7587 8.23867L42.487 7.29722L41.3413 6.82349L40.9353 7.96779L40.7355 8.5315L40.1711 8.29824L39.0274 7.82542L38.6223 8.96761L38.4224 9.53132L37.858 9.29806L36.7122 8.82434L36.3063 9.96863L35.5014 12.2382L34.937 12.005L33.7968 11.5361L33.3909 12.6804L30.3693 21.2138L29.9633 22.3581L31.1091 22.8318L31.6735 23.065L30.8694 25.3325L30.4642 26.4747L31.61 26.9484L32.1744 27.1817L31.9745 27.7454L31.5686 28.8897L32.7144 29.3634L33.2788 29.5967L33.0797 30.1583L32.6745 31.3005L33.8203 31.7742L36.0928 32.7135L35.8929 33.2773L35.4877 34.4194L36.6335 34.8932L45.1795 38.4212L46.3253 38.8949L46.7304 37.7527L46.9303 37.189L49.2001 38.1223L50.3437 38.5951L50.7489 37.4529L50.948 36.8913L51.5124 37.1246L52.656 37.5974L53.0612 36.4552L53.261 35.8915L53.8255 36.1248L54.9691 36.5976L55.3743 35.4554L56.177 33.1849L56.7414 33.4182L57.8851 33.891L58.291 32.7467L61.3126 24.2133L61.7178 23.0711L60.5721 22.5974L60.0076 22.3641L60.8125 20.0945L61.2184 18.9502L60.0727 18.4765L59.5083 18.2432L59.7081 17.6795L60.1141 16.5352L58.9683 16.0615L58.4039 15.8282L58.6038 15.2645L59.0089 14.1223L57.8632 13.6486L55.5936 12.7081L55.7935 12.1444L56.1986 11.0022Z" fill="white"/>
<path d="M48.8908 27.107L40.6521 23.874L40.0467 25.5142L48.2854 28.7472L48.8908 27.107Z" fill="#B22A2A"/>
<path d="M51.2143 25.8342L49.5222 25.1514L48.8981 26.8813L50.5901 27.5642L51.2143 25.8342Z" fill="#B22A2A"/>
<path d="M41.4157 22.138L39.7236 21.4551L39.0995 23.185L40.7916 23.8679L41.4157 22.138Z" fill="#B22A2A"/>
<path d="M54.2187 22.86L52.4902 22.166L51.2164 25.682L52.9449 26.376L54.2187 22.86Z" fill="#B22A2A"/>
<path d="M41.1569 17.9342L39.4285 17.2402L38.1547 20.7561L39.8831 21.4501L41.1569 17.9342Z" fill="#B22A2A"/>
<path d="M52.3288 18.029L50.6003 17.335L49.3265 20.8509L51.055 21.5449L52.3288 18.029Z" fill="#B22A2A"/>
<path d="M45.7951 15.5641L44.0667 14.8701L42.7929 18.386L44.5213 19.08L45.7951 15.5641Z" fill="#B22A2A"/>
</svg>
