<svg width="294" height="169" viewBox="0 0 294 169" fill="none" xmlns="http://www.w3.org/2000/svg">
<g style="mix-blend-mode:multiply">
<rect width="82.3541" height="82.3541" transform="matrix(1 8.74228e-08 8.74228e-08 -1 61.1943 105.9)" fill="#E1E4E1" fill-opacity="0.6"/>
</g>
<g style="mix-blend-mode:multiply">
<rect width="91.8117" height="91.8117" transform="matrix(1 8.74228e-08 8.74228e-08 -1 106.658 168.255)" fill="#E1E4E1" fill-opacity="0.6"/>
</g>
<g style="mix-blend-mode:multiply">
<rect width="76.2053" height="76.2053" transform="matrix(1 8.74228e-08 8.74228e-08 -1 171.528 111.202)" fill="#E1E4E1" fill-opacity="0.6"/>
</g>
<g style="mix-blend-mode:multiply">
<rect width="75.4356" height="75.4356" transform="matrix(1 8.74228e-08 8.74228e-08 -1 290.743 128.617)" fill="#E1E4E1" fill-opacity="0.6"/>
</g>
<g style="mix-blend-mode:multiply">
<rect width="33.1039" height="33.1039" transform="matrix(1 8.74228e-08 8.74228e-08 -1 0.643555 108.315)" fill="#E1E4E1" fill-opacity="0.6"/>
</g>
<g style="mix-blend-mode:multiply">
<rect width="90.0608" height="90.0608" transform="matrix(1 8.74228e-08 8.74228e-08 -1 216.847 90.5146)" fill="#E1E4E1" fill-opacity="0.6"/>
</g>
</svg>
