<svg width="1440" height="690" viewBox="0 0 1440 690" fill="none" xmlns="http://www.w3.org/2000/svg">
<rect x="14" y="502.5" width="68" height="68" fill="#822FBC"/>
<rect y="490.5" width="68" height="68" fill="#FFEC61"/>
<rect x="1284.6" y="14.9521" width="59.5347" height="59.5347" fill="#822FBC"/>
<rect x="1272.34" y="4.44629" width="59.5347" height="59.5347" fill="#FFEC61"/>
<rect x="1440" y="185.809" width="50.3418" height="49.7886" transform="rotate(-180 1440 185.809)" fill="#822FBC"/>
<rect x="1431.25" y="175.303" width="50.3418" height="49.7886" transform="rotate(-180 1431.25 175.303)" fill="#6CE7EA"/>
<rect x="829.031" y="649.49" width="73.8351" height="73.0237" transform="rotate(-180 829.031 649.49)" fill="#822FBC"/>
<rect x="815.008" y="636.523" width="73.8351" height="73.0237" transform="rotate(-180 815.008 636.523)" fill="#6CE7EA"/>
<rect x="871.635" y="689.754" width="44.4568" height="43.9683" transform="rotate(-180 871.635 689.754)" fill="#822FBC"/>
<rect x="860.521" y="680.492" width="44.4568" height="43.9683" transform="rotate(-180 860.521 680.492)" fill="#61A1FF"/>
<path d="M790.566 302.51L783.863 302.582L783.826 299.389L780.476 299.425L780.434 296.224L777.085 296.263L777.006 289.866L773.656 289.902L773.436 271.773L776.785 271.733L776.706 265.34L780.06 265.3L780.018 262.103L783.368 262.063L783.33 258.867L790.034 258.791L789.992 255.594L808.991 255.384L809.033 258.581L815.732 258.505L815.774 261.706L819.123 261.666L819.161 264.867L822.51 264.827L822.589 271.225L825.943 271.185L826.164 289.318L822.814 289.354L822.889 295.751L819.539 295.791L819.581 298.988L816.227 299.027L816.269 302.22L809.565 302.296L809.607 305.493L790.608 305.707L790.566 302.51Z" fill="#FFD206"/>
<path d="M807.884 256.468L807.922 259.665L814.621 259.589L814.658 262.786L818.008 262.751L818.045 265.951L821.395 265.916L821.474 272.309L824.824 272.274L825.019 288.262L821.67 288.297L821.749 294.695L818.399 294.731L818.436 297.932L815.087 297.967L815.124 301.164L808.425 301.24L808.463 304.436L791.706 304.623L791.669 301.426L784.965 301.502L784.928 298.305L781.578 298.341L781.541 295.14L778.191 295.176L778.112 288.778L774.763 288.814L774.571 272.829L777.921 272.794L777.842 266.4L781.191 266.364L781.154 263.164L784.504 263.128L784.466 259.931L791.169 259.856L791.132 256.659L807.884 256.468ZM810.102 254.3L807.855 254.324L791.103 254.51L788.86 254.538L788.885 256.683L788.898 257.739L784.441 257.783L782.194 257.806L782.219 259.951L782.232 261.007L781.125 261.019L778.882 261.043L778.907 263.183L778.919 264.24L777.813 264.252L775.566 264.275L775.591 266.42L775.641 270.673L774.534 270.685L772.299 270.713L772.324 272.857L772.52 288.845L772.545 290.99L774.792 290.966L775.899 290.954L775.949 295.203L775.973 297.344L778.22 297.32L779.327 297.308L779.34 298.364L779.365 300.509L781.612 300.485L782.718 300.473L782.731 301.525L782.756 303.666L785.003 303.642L789.459 303.594L789.472 304.651L789.497 306.791L791.744 306.767L808.5 306.581L810.747 306.557L810.722 304.417L810.709 303.36L815.158 303.305L817.4 303.281L817.375 301.14L817.363 300.088L818.47 300.076L820.712 300.052L820.688 297.912L820.675 296.855L821.782 296.843L824.025 296.82L824 294.679L823.946 290.426L825.052 290.414L827.295 290.39L827.27 288.246L827.075 272.258L827.05 270.117L824.803 270.141L823.696 270.153L823.646 265.9L823.621 263.755L821.374 263.779L820.267 263.791L820.255 262.735L820.23 260.59L817.983 260.614L816.876 260.626L816.864 259.57L816.839 257.429L814.592 257.453L810.139 257.497L810.127 256.44L810.102 254.3Z" fill="white"/>
<path d="M808.234 285.247L791.479 285.435L791.519 288.631L808.273 288.444L808.234 285.247Z" fill="#B22A2A"/>
<path d="M811.547 282.01L808.197 282.048L808.237 285.248L811.586 285.211L811.547 282.01Z" fill="#B22A2A"/>
<path d="M791.441 282.233L788.092 282.271L788.131 285.471L791.48 285.434L791.441 282.233Z" fill="#B22A2A"/>
<path d="M814.814 275.577L811.465 275.614L811.543 282.011L814.893 281.974L814.814 275.577Z" fill="#B22A2A"/>
<path d="M788.014 275.876L784.665 275.913L784.743 282.31L788.092 282.273L788.014 275.876Z" fill="#B22A2A"/>
<path d="M808.04 269.259L804.69 269.297L804.769 275.694L808.118 275.656L808.04 269.259Z" fill="#B22A2A"/>
<path d="M794.633 269.407L791.284 269.444L791.363 275.841L794.712 275.804L794.633 269.407Z" fill="#B22A2A"/>
<path d="M1134.21 30.1964V18.1753H1127.9V12.1597H1121.61V6.15428H1109.01V0.138672H1068.99V6.15428H1056.4V12.1597H1050.1V18.1753H1043.8V30.1964H1037.5V68.3833H1043.8V80.4043H1050.1V86.4199H1056.4V92.4355H1068.99V98.441H1109.01V92.4355H1121.61V86.4199H1127.9V80.4043H1134.21V68.3833H1140.5V30.1964H1134.21Z" fill="white"/>
<path d="M1129.95 34.2608H1136.24V64.3185H1129.95V76.3396H1123.65V82.3552H1117.34V88.3708H1104.75V94.3762H1073.25V88.3708H1060.66V82.3552H1054.35V76.3396H1048.06V64.3185H1041.76V34.2608H1048.06V22.2398H1054.35V16.2242H1060.66V10.2187H1073.25V4.20312H1104.75V10.2187H1117.34V16.2242H1123.65V22.2398H1129.95V34.2608Z" fill="#FFD206"/>
<path d="M1104.75 58.3135H1098.44V64.3291H1104.75V58.3135Z" fill="#B3292A"/>
<path d="M1079.56 58.3135H1073.25V64.3291H1079.56V58.3135Z" fill="#B3292A"/>
<path d="M1048.06 28.2451V40.2662H1054.35V52.2974H1079.56V46.2818H1085.85V34.2607H1092.15V46.2818H1098.44V52.2974H1123.65V40.2662H1129.95V28.2451H1048.06Z" fill="#B3292A"/>
<path d="M1098.45 64.3184H1079.56V70.334H1098.45V64.3184Z" fill="#B3292A"/>
<rect x="375.567" y="681.446" width="31.0449" height="30.7037" transform="rotate(-180 375.567 681.446)" fill="#822FBC"/>
<rect x="366.85" y="674.182" width="31.0449" height="30.7037" transform="rotate(-180 366.85 674.182)" fill="#61A1FF"/>
</svg>
