<svg width="960" height="334" viewBox="0 0 960 334" fill="none" xmlns="http://www.w3.org/2000/svg">
<rect x="793.501" y="242.804" width="62.539" height="62.539" fill="#822FBC"/>
<rect x="780.625" y="231.768" width="62.539" height="62.539" fill="#61A1FF"/>
<rect x="7.5" y="169" width="34" height="34" fill="#822FBC"/>
<rect x="0.5" y="163" width="34" height="34" fill="#FFEC61"/>
<rect x="875.625" y="161.626" width="34" height="34" fill="#822FBC"/>
<rect x="868.625" y="155.626" width="34" height="34" fill="#FFEC61"/>
<path d="M376.127 252.633L366.857 256.889L373.7 271.794L382.969 267.538L376.127 252.633Z" fill="#EAEEEF"/>
<path d="M375.144 255.284L380.319 266.555L374.681 269.144L369.507 257.874L375.144 255.284ZM377.112 249.984L373.476 251.653L367.838 254.243L364.202 255.911L365.871 259.547L371.046 270.818L372.714 274.454L376.35 272.785L381.988 270.195L385.624 268.527L383.955 264.891L378.78 253.62L377.112 249.984Z" fill="#EAEEEF"/>
<path d="M351.617 268.282L340.341 273.462L337.751 267.819L332.118 270.409L329.528 264.771L323.89 267.361L321.305 261.723L314.462 246.816L320.1 244.226L317.51 238.593L323.148 236.003L320.558 230.37L376.928 204.492L374.338 198.854L379.976 196.264L377.391 190.631L383.024 188.041L380.439 182.403L386.072 179.818L383.487 174.18L392.756 169.927L403.105 192.464L433.237 258.107L423.969 262.365L421.384 256.732L415.746 259.317L413.156 253.679L407.523 256.269L404.933 250.626L399.295 253.216L396.71 247.583L372.156 258.854L380.842 277.765L386.475 275.175L390.734 284.449L364.556 296.467L351.617 268.282Z" fill="#EAEEEF"/>
<path d="M391.774 172.577L402.124 195.124L404.714 200.762L399.076 203.351L396.491 197.718L399.081 203.356L401.671 208.994L399.081 203.356L404.719 200.767L420.248 234.589L430.598 257.136L424.96 259.726L422.375 254.093L416.737 256.683L414.147 251.045L408.509 253.635L405.919 247.997L400.281 250.587L397.696 244.954L369.512 257.893L379.861 280.44L385.499 277.85L388.089 283.488L365.542 293.838L352.603 265.653L341.327 270.828L338.737 265.19L333.099 267.78L330.509 262.142L324.871 264.731L322.281 259.093L327.919 256.504L325.334 250.871L327.919 256.504L322.281 259.093L317.106 247.823L322.744 245.233L328.382 242.643L330.972 248.281L328.382 242.643L322.744 245.233L320.154 239.595L325.792 237.005L323.203 231.367L379.572 205.488L376.982 199.85L382.62 197.26L380.035 191.627L385.673 189.037L383.083 183.399L388.721 180.81L386.132 175.172L391.774 172.577ZM334.025 240.038L390.39 214.164L392.98 219.802L390.39 214.164L334.025 240.038ZM393.737 167.272L390.101 168.941L384.463 171.531L380.827 173.199L382.496 176.835L383.417 178.837L381.415 179.759L377.779 181.427L379.448 185.063L380.369 187.07L378.367 187.991L374.731 189.66L376.4 193.296L377.316 195.298L375.314 196.219L371.678 197.888L373.347 201.524L374.268 203.531L321.539 227.716L317.903 229.385L319.572 233.02L320.493 235.023L318.491 235.944L314.855 237.612L316.524 241.248L317.445 243.25L315.443 244.172L311.807 245.84L313.476 249.476L318.65 260.747L320.319 264.383L321.24 266.385L322.909 270.021L326.545 268.352L328.547 267.431L329.468 269.433L331.137 273.069L334.772 271.4L336.775 270.479L337.696 272.486L339.364 276.122L343 274.453L350.64 270.947L361.911 295.496L363.58 299.132L367.215 297.463L389.762 287.114L393.398 285.445L391.73 281.81L389.14 276.172L387.471 272.536L383.836 274.204L381.833 275.126L374.821 259.851L395.739 250.248L396.655 252.25L398.324 255.886L401.96 254.218L403.962 253.296L404.883 255.303L406.552 258.939L410.187 257.271L412.19 256.349L413.111 258.356L414.78 261.992L418.415 260.324L420.418 259.402L421.334 261.404L423.002 265.04L426.638 263.372L432.276 260.782L435.912 259.113L434.243 255.478L423.894 232.931L410.033 202.739L408.365 199.103L405.775 193.465L404.116 189.849L395.425 170.918L393.737 167.272Z" fill="#EAEEEF"/>
<path d="M375.141 255.283L369.505 257.87L374.679 269.141L380.315 266.554L375.141 255.283Z" fill="#3A4467"/>
<path d="M412.015 231.532L400.739 236.706L398.155 231.068L336.147 259.537L330.972 248.261L325.334 250.851L327.924 256.484L322.286 259.074L324.876 264.712L330.509 262.122L333.099 267.76L338.737 265.17L341.322 270.808L352.598 265.633L365.537 293.818L388.084 283.468L385.494 277.831L379.856 280.415L369.507 257.874L397.691 244.934L400.281 250.567L405.914 247.977L408.504 253.615L414.142 251.03L416.732 256.668L422.365 254.078L424.95 259.716L430.588 257.126L420.238 234.585L414.6 237.17L412.015 231.532Z" fill="#5C6B86"/>
<path d="M458.771 244.187L453.136 246.774L455.725 252.414L461.36 249.827L458.771 244.187Z" fill="#EAEEEF"/>
<path d="M450.544 241.141L444.909 243.728L447.496 249.363L453.131 246.776L450.544 241.141Z" fill="#EAEEEF"/>
<path d="M442.322 238.092L436.687 240.679L439.276 246.318L444.911 243.732L442.322 238.092Z" fill="#EAEEEF"/>
<path d="M454.054 219.059L442.783 224.232L445.37 229.868L456.641 224.694L454.054 219.059Z" fill="#EAEEEF"/>
<path d="M440.195 218.589L428.925 223.763L431.514 229.402L442.784 224.229L440.195 218.589Z" fill="#EAEEEF"/>
<path d="M443.706 196.508L421.16 206.858L423.747 212.494L446.293 202.144L443.706 196.508Z" fill="#EAEEEF"/>
<path d="M322.746 245.211L317.111 247.798L322.285 259.068L327.92 256.481L322.746 245.211Z" fill="#5C6B86"/>
<path d="M424.668 184.772L413.398 189.946L415.985 195.582L427.255 190.408L424.668 184.772Z" fill="#EAEEEF"/>
<path d="M433.353 173.96L422.082 179.134L424.671 184.774L435.942 179.6L433.353 173.96Z" fill="#EAEEEF"/>
<path d="M411.274 170.45L405.639 173.037L408.228 178.677L413.863 176.09L411.274 170.45Z" fill="#EAEEEF"/>
<path d="M414.323 162.227L408.688 164.814L411.275 170.45L416.91 167.863L414.323 162.227Z" fill="#EAEEEF"/>
<path d="M388.726 180.799L383.089 183.389L385.678 189.027L380.04 191.612L382.625 197.245L376.992 199.835L379.577 205.473L323.208 231.351L325.798 236.984L320.16 239.574L322.749 245.212L328.382 242.622L336.147 259.536L398.155 231.067L400.74 236.705L412.015 231.531L414.6 237.169L420.238 234.584L404.714 200.761L399.076 203.346L401.661 208.984L390.39 214.159L392.98 219.797L336.61 245.675L334.025 240.032L390.39 214.159L387.805 208.521L399.076 203.346L396.486 197.708L402.124 195.123L391.775 172.576L386.137 175.161L388.726 180.799Z" fill="#8999B3"/>
<path d="M417.37 154L411.735 156.587L414.324 162.227L419.959 159.64L417.37 154Z" fill="#EAEEEF"/>
<path d="M390.385 214.16L334.019 240.036L336.608 245.676L392.974 219.8L390.385 214.16Z" fill="#EAEEEF"/>
<path d="M328.382 242.622L322.747 245.209L325.336 250.849L330.971 248.262L328.382 242.622Z" fill="#EAEEEF"/>
<path d="M399.069 203.35L387.798 208.523L390.387 214.163L401.658 208.989L399.069 203.35Z" fill="#EAEEEF"/>
<path d="M402.119 195.121L396.484 197.708L399.071 203.343L404.706 200.756L402.119 195.121Z" fill="#EAEEEF"/>
<rect x="712.809" y="26.1328" width="21.3672" height="21.1324" transform="rotate(-180 712.809 26.1328)" fill="#822FBC"/>
<rect x="706.809" y="21.1328" width="21.3672" height="21.1324" transform="rotate(-180 706.809 21.1328)" fill="#61A1FF"/>
<rect x="959.375" y="259.201" width="28.75" height="28.4341" transform="rotate(-180 959.375 259.201)" fill="#822FBC"/>
<rect x="954.375" y="253.201" width="28.75" height="28.4341" transform="rotate(-180 954.375 253.201)" fill="#6CE7EA"/>
<rect x="521.375" y="311.343" width="39.8599" height="39.4219" transform="rotate(-180 521.375 311.343)" fill="#822FBC"/>
<rect x="513.805" y="304.343" width="39.8599" height="39.4219" transform="rotate(-180 513.805 304.343)" fill="#FFEC61"/>
<path d="M531.667 126.227L527.523 126.273L527.5 124.205L525.429 124.228L525.404 122.155L523.333 122.181L523.284 118.037L521.213 118.06L521.077 106.318L523.148 106.292L523.099 102.151L525.172 102.125L525.146 100.054L527.217 100.029L527.194 97.958L531.338 97.9091L531.312 95.8385L543.057 95.7021L543.083 97.7728L547.224 97.7239L547.25 99.7972L549.32 99.7714L549.344 101.845L551.414 101.819L551.463 105.963L553.536 105.937L553.673 117.682L551.602 117.705L551.648 121.849L549.578 121.875L549.603 123.945L547.53 123.971L547.556 126.039L543.412 126.088L543.438 128.159L531.693 128.298L531.667 126.227Z" fill="#FFD206"/>
<path d="M542.373 96.4044L542.396 98.4751L546.537 98.4262L546.561 100.497L548.631 100.474L548.654 102.547L550.725 102.524L550.774 106.665L552.845 106.642L552.965 116.998L550.895 117.021L550.944 121.165L548.873 121.188L548.896 123.261L546.825 123.284L546.849 125.355L542.707 125.404L542.73 127.475L532.372 127.596L532.349 125.525L528.205 125.574L528.182 123.503L526.111 123.526L526.088 121.453L524.017 121.476L523.968 117.332L521.898 117.355L521.779 107.002L523.85 106.979L523.801 102.838L525.872 102.814L525.849 100.741L527.919 100.718L527.896 98.6475L532.04 98.5986L532.017 96.5279L542.373 96.4044ZM543.744 95L542.355 95.0154L531.999 95.1363L530.613 95.1543L530.628 96.5433L530.636 97.2276L527.881 97.2559L526.492 97.2713L526.507 98.6603L526.515 99.3445L525.831 99.3522L524.444 99.3677L524.46 100.754L524.467 101.438L523.783 101.446L522.394 101.461L522.41 102.851L522.441 105.605L521.756 105.613L520.375 105.631L520.39 107.02L520.511 117.376L520.527 118.765L521.916 118.75L522.6 118.742L522.631 121.494L522.646 122.881L524.035 122.865L524.72 122.857L524.727 123.542L524.743 124.931L526.132 124.915L526.816 124.908L526.824 125.589L526.839 126.976L528.228 126.96L530.983 126.929L530.991 127.614L531.006 129L532.395 128.985L542.754 128.864L544.143 128.848L544.127 127.462L544.119 126.778L546.869 126.742L548.256 126.726L548.24 125.34L548.232 124.658L548.917 124.65L550.303 124.635L550.288 123.248L550.28 122.564L550.964 122.557L552.351 122.541L552.335 121.155L552.302 118.4L552.986 118.392L554.372 118.377L554.357 116.988L554.236 106.632L554.221 105.245L552.832 105.261L552.147 105.268L552.117 102.514L552.101 101.125L550.712 101.14L550.028 101.148L550.02 100.463L550.005 99.0744L548.616 99.0899L547.932 99.0976L547.924 98.4134L547.908 97.0269L546.519 97.0424L543.767 97.0707L543.759 96.3864L543.744 95Z" fill="white"/>
<path d="M542.589 115.046L532.232 115.167L532.256 117.237L542.614 117.116L542.589 115.046Z" fill="#B22A2A"/>
<path d="M544.637 112.948L542.566 112.973L542.591 115.046L544.661 115.021L544.637 112.948Z" fill="#B22A2A"/>
<path d="M532.208 113.093L530.138 113.117L530.162 115.19L532.232 115.166L532.208 113.093Z" fill="#B22A2A"/>
<path d="M546.657 108.781L544.586 108.806L544.635 112.949L546.705 112.925L546.657 108.781Z" fill="#B22A2A"/>
<path d="M530.089 108.975L528.019 108.999L528.068 113.143L530.138 113.118L530.089 108.975Z" fill="#B22A2A"/>
<path d="M542.469 104.69L540.399 104.714L540.447 108.857L542.518 108.833L542.469 104.69Z" fill="#B22A2A"/>
<path d="M534.182 104.785L532.111 104.81L532.16 108.953L534.23 108.929L534.182 104.785Z" fill="#B22A2A"/>
<rect x="544.375" y="333.079" width="24" height="23.7363" transform="rotate(-180 544.375 333.079)" fill="#822FBC"/>
<rect x="538.375" y="328.079" width="24" height="23.7363" transform="rotate(-180 538.375 328.079)" fill="#61A1FF"/>
<path d="M867.518 37.4288V30.4584H864.03V26.9703H860.547V23.4881H853.571V20H831.429V23.4881H824.458V26.9703H820.97V30.4584H817.488V37.4288H814V59.5712H817.488V66.5416H820.97V70.0297H824.458V73.5178H831.429V77H853.571V73.5178H860.547V70.0297H864.03V66.5416H867.518V59.5712H871V37.4288H867.518Z" fill="white"/>
<path d="M865.161 39.7852H868.643V57.214H865.161V64.1843H861.673V67.6725H858.185V71.1606H851.214V74.6428H833.786V71.1606H826.815V67.6725H823.327V64.1843H819.845V57.214H816.357V39.7852H819.845V32.8149H823.327V29.3268H826.815V25.8446H833.786V22.3564H851.214V25.8446H858.185V29.3268H861.673V32.8149H865.161V39.7852Z" fill="#FFD206"/>
<path d="M851.214 53.7324H847.726V57.2205H851.214V53.7324Z" fill="#B3292A"/>
<path d="M837.274 53.7324H833.786V57.2205H837.274V53.7324Z" fill="#B3292A"/>
<path d="M819.845 36.2979V43.2682H823.327V50.2444H837.274V46.7563H840.756V39.786H844.244V46.7563H847.726V50.2444H861.673V43.2682H865.161V36.2979H819.845Z" fill="#B3292A"/>
<path d="M847.732 57.2148H837.274V60.703H847.732V57.2148Z" fill="#B3292A"/>
</svg>
