<svg width="228" height="275" viewBox="0 0 228 275" fill="none" xmlns="http://www.w3.org/2000/svg">
<path d="M112.338 21.3182V16.5854H114.763V21.3182H119.624V23.6796H114.763V28.4073H112.338V23.6796H107.477V21.3182H112.338Z" fill="white"/>
<path d="M105.051 21.3179V18.9515H109.907V14.2238H112.338V9.49609H114.768V14.2238H117.199V18.9515H122.055V21.3179H129.341V23.6843H122.055V26.0456H117.199V30.7784H114.768V37.8725H112.338V30.7733H109.907V26.0406H105.051V23.6793H97.7649V21.3129H105.051V21.3179ZM112.338 23.6843V28.412H114.768V23.6843H119.624V21.3179H114.768V16.5851H112.338V21.3179H107.482V23.6843H112.338Z" fill="#FFE85D"/>
<path d="M95.3343 21.318V18.9516H102.621V16.5852H107.477V11.8575H109.907V7.12976H112.338V0.0356445H114.768V7.12976H117.199V11.8575H119.624V16.5852H124.48V18.9516H131.767V21.318H139.053V23.6844H131.767V26.0457H124.48V28.4121H119.624V33.1449H117.199V40.239H114.768V47.3331H112.338V40.2339H109.907V33.1398H107.477V28.4071H102.621V26.0407H95.3343V23.6793H88.0479V21.3129H95.3343V21.318ZM105.051 23.6844V26.0457H109.907V30.7785H112.338V37.8726H114.768V30.7734H117.199V26.0407H122.055V23.6793H129.341V21.3129H122.055V18.9466H117.199V14.2188H114.768V9.4911H112.338V14.2188H109.907V18.9466H105.051V21.3129H97.7649V23.6793H105.051V23.6844Z" fill="#F8AA22"/>
<path d="M136.291 239.797H98.0654V274.188H136.291V239.797Z" fill="#773424"/>
<path d="M106.881 239.797H98.0654V274.188H106.881V239.797Z" fill="#602417"/>
<path d="M218.619 235.695V226.936H209.347V218.404H199.35V210.129H218.111V201.325H209.617V192.515H200.252V183.857H189.737V175.577H209.347V166.772H200.252V157.968H189.737V149.688H180.455V141.716H209.347V132.911H200.252V124.107H189.737V115.827H180.455V107.325H171.376V98.9192H162.384V90.1146H152.19V81.8398H142.624V73.0302H133.518V64.2257H124.573V55.8247H117.852V47.1968H109.591V55.8247H102.864V64.2257H93.9246V73.0302H84.8139V81.8398H75.2472V90.1146H65.0534V98.9192H56.0671V107.325H46.9823V115.827H37.7058V124.107H27.1907V132.911H18.0956V141.716H46.9823V149.688H37.7058V157.968H27.1907V166.772H18.0956V175.577H37.7058V183.857H27.1907V192.515H17.8261V201.325H9.32693V210.129H28.0924V218.404H18.0956V226.936H8.81906V235.695H0.221436V244.505H227.221V235.695H218.619Z" fill="#46DE55"/>
<path d="M218.619 235.508V226.643H209.347V218.404H199.366V210.275H218.033V200.754H209.43V191.884H200.159V183.65H189.659V175.491H209.384V166.5H200.781V157.63H191.509V149.395H181.533V142.029H209.503V132.508H200.9V124.167H191.623V115.933H181.647V107.27H172.215V98.6264H162.638V90.0186H152.496V81.3856H143.038V72.7778H112.529V81.3856H122.511V90.0186H104.471V99.1562H122.614V107.27H46.9823V116.079H86.1199V124.167H67.0953V133.037H17.852V142.029H46.9823V149.542H86.0007V157.63H66.9813V166.5H18.0956V175.491H37.7058V183.796H94.1319V191.884H75.1125V200.754H9.32693V209.746H28.0717V218.555H103.839V226.643H84.8139V235.508H0.221436V244.505H227.221V235.508H218.619Z" fill="#46AE3D"/>
<path d="M133.555 64.1753H125.118V72.7831H133.555V64.1753Z" fill="#1E7936"/>
<path d="M124.641 55.5674H117.759V64.1752H124.641V55.5674Z" fill="#1E7936"/>
<path d="M173.573 175.052H155.943V192.217H173.573V175.052Z" fill="#115EAA"/>
<path d="M102.735 132.013H85.1042V149.178H102.735V132.013Z" fill="#115EAA"/>
<path d="M162.913 89.3228H145.282V106.488H162.913V89.3228Z" fill="#ECBB27"/>
<path d="M83.1296 89.8271H65.499V106.992H83.1296V89.8271Z" fill="#ECBB27"/>
<path d="M84.8398 218.459H67.2092V235.625H84.8398V218.459Z" fill="#115EAA"/>
<path d="M173.573 227.148H155.943V244.313H173.573V227.148Z" fill="#ECBB27"/>
<path d="M82.9276 89.5044H74.1123V98.087H82.9276V89.5044Z" fill="white"/>
<path d="M173.573 175.052H164.758V183.635H173.573V175.052Z" fill="white"/>
<path d="M84.84 218.459H76.0247V227.042H84.84V218.459Z" fill="white"/>
</svg>
