<svg width="518" height="731" viewBox="0 0 518 731" fill="none" xmlns="http://www.w3.org/2000/svg">
<circle cx="247" cy="331" r="247" fill="#3BEB84" fill-opacity="0.3"/>
<path d="M109.226 92C112.426 56.8 142.559 18.6667 157.226 4C171.893 20 205.226 60 205.226 92C205.226 136 171.893 169.333 157.226 188C139.893 170.667 106.026 127.2 109.226 92Z" stroke="#A8A8A8" stroke-width="8" stroke-linejoin="round"/>
<path d="M445.175 193.175C474.299 195.823 505.851 220.755 517.986 232.89C504.747 245.026 471.651 272.606 445.175 272.606C408.769 272.606 381.189 245.026 365.744 232.89C380.086 218.549 416.05 190.527 445.175 193.175Z" fill="#16A752"/>
<path d="M443.093 331.651C468.155 333.929 495.304 355.383 505.747 365.825C494.355 376.267 465.876 400 443.093 400C411.767 400 388.035 376.267 374.745 365.825C387.085 353.484 418.032 329.372 443.093 331.651Z" fill="#16A752" fill-opacity="0.8"/>
<path d="M441.12 451.124C461.791 453.004 484.185 470.699 492.798 479.312C483.402 487.925 459.912 507.5 441.12 507.5C415.281 507.5 395.706 487.925 384.744 479.312C394.923 469.133 420.449 449.245 441.12 451.124Z" fill="#16A752" fill-opacity="0.7"/>
<path d="M442.044 562.613C460.854 564.323 481.231 580.426 489.069 588.263C480.519 596.1 459.144 613.913 442.044 613.913C418.532 613.913 400.719 596.1 390.744 588.263C400.007 579.001 423.234 560.903 442.044 562.613Z" fill="#16A752" fill-opacity="0.6"/>
<path d="M439.083 640.867C451.308 641.978 464.551 652.443 469.645 657.537C464.088 662.63 450.197 674.206 439.083 674.206C423.803 674.206 412.227 662.63 405.744 657.537C411.764 651.517 426.859 639.756 439.083 640.867Z" fill="#16A752" fill-opacity="0.5"/>
<path d="M157.244 189V726.5" stroke="#A8A8A8" stroke-width="8" stroke-linecap="round"/>
<path d="M203.245 726.5V435.5C203.245 435.5 201.917 402.997 221.745 384.75C241.572 366.503 266.745 366.5 266.745 366.5H380.745M225.245 726.5V537.018C225.245 537.018 223.917 509.688 243.745 494.345C263.572 479.003 288.745 479 288.745 479L389.245 479M247.245 726.5L247.245 660.95C247.245 660.95 245.917 626.822 265.745 607.663C285.572 588.503 310.745 588.5 310.745 588.5L394.745 588.5M270.245 726.5C270.245 726.5 268.917 693.997 288.745 675.75C308.572 657.503 333.745 657.5 333.745 657.5L409.745 657.5M180.245 726.5V300.5C180.245 300.5 178.917 267.997 198.745 249.75C218.572 231.503 243.745 231.5 243.745 231.5L374.745 231.5" stroke="#16A752" stroke-width="8" stroke-linecap="round"/>
</svg>
